<mxfile host="app.diagrams.net" modified="2020-07-23T17:26:29.727Z" agent="5.0 (Windows NT 10.0; Win64; x64) AppleWebKit/537.36 (KHTML, like Gecko) Chrome/84.0.4147.89 Safari/537.36" etag="bHRdXOydDZX9V2ZMCxzj" version="13.4.9" type="github">
  <diagram id="ee5q7pHl0pdBWp1s6GED" name="Page-1">
    <mxGraphModel dx="4637" dy="1877" grid="1" gridSize="10" guides="1" tooltips="1" connect="1" arrows="1" fold="1" page="0" pageScale="1" pageWidth="850" pageHeight="1100" background="none" math="0" shadow="1">
      <root>
        <mxCell id="0" />
        <mxCell id="1" parent="0" />
        <mxCell id="J2sVRKakkmMQEyNmL68_-4" value="&lt;font style=&quot;font-size: 24px&quot;&gt;GET&lt;/font&gt;" style="rounded=1;whiteSpace=wrap;html=1;fillColor=#6a00ff;strokeColor=#3700CC;fontColor=#FFFFFF;" parent="1" vertex="1">
          <mxGeometry x="-380" y="830" width="245" height="70" as="geometry" />
        </mxCell>
        <mxCell id="J2sVRKakkmMQEyNmL68_-9" value="https://files.mlspp.gov.az/api" style="text;html=1;strokeColor=none;fillColor=none;align=center;verticalAlign=middle;whiteSpace=wrap;rounded=0;fontSize=24;" parent="1" vertex="1">
          <mxGeometry x="350" y="110" width="130" height="20" as="geometry" />
        </mxCell>
        <mxCell id="J2sVRKakkmMQEyNmL68_-12" value="&lt;font style=&quot;font-size: 24px&quot;&gt;POST&lt;/font&gt;" style="rounded=1;whiteSpace=wrap;html=1;fillColor=#1ba1e2;strokeColor=#006EAF;fontColor=#ffffff;" parent="1" vertex="1">
          <mxGeometry x="-380" y="1030" width="245" height="70" as="geometry" />
        </mxCell>
        <mxCell id="J2sVRKakkmMQEyNmL68_-13" value="&lt;font style=&quot;font-size: 24px&quot;&gt;PUT&lt;/font&gt;" style="rounded=1;whiteSpace=wrap;html=1;fillColor=#f0a30a;strokeColor=#BD7000;fontColor=#ffffff;" parent="1" vertex="1">
          <mxGeometry x="-380" y="1200" width="245" height="70" as="geometry" />
        </mxCell>
        <mxCell id="J2sVRKakkmMQEyNmL68_-14" value="&lt;font style=&quot;font-size: 24px&quot;&gt;DELETE&lt;/font&gt;" style="rounded=1;whiteSpace=wrap;html=1;fillColor=#a20025;strokeColor=#6F0000;fontColor=#ffffff;" parent="1" vertex="1">
          <mxGeometry x="-380" y="1370" width="245" height="70" as="geometry" />
        </mxCell>
        <mxCell id="J2sVRKakkmMQEyNmL68_-18" value="subfolder, filename" style="shape=parallelogram;perimeter=parallelogramPerimeter;whiteSpace=wrap;html=1;fontSize=24;fillColor=#f5f5f5;strokeColor=#666666;fontColor=#333333;" parent="1" vertex="1">
          <mxGeometry x="-940" y="830" width="410" height="60" as="geometry" />
        </mxCell>
        <mxCell id="J2sVRKakkmMQEyNmL68_-19" value="&lt;font color=&quot;#ff0000&quot;&gt;file&lt;/font&gt;" style="shape=parallelogram;perimeter=parallelogramPerimeter;whiteSpace=wrap;html=1;fillColor=#60a917;fontSize=24;strokeColor=#2D7600;fontColor=#ffffff;" parent="1" vertex="1">
          <mxGeometry x="20" y="830" width="360" height="60" as="geometry" />
        </mxCell>
        <mxCell id="J2sVRKakkmMQEyNmL68_-20" value="" style="shape=flexArrow;endArrow=classic;html=1;fontSize=24;fillColor=#a0522d;strokeColor=#6D1F00;" parent="1" edge="1">
          <mxGeometry width="50" height="50" relative="1" as="geometry">
            <mxPoint x="-110" y="864.5" as="sourcePoint" />
            <mxPoint x="10" y="864.5" as="targetPoint" />
          </mxGeometry>
        </mxCell>
        <mxCell id="J2sVRKakkmMQEyNmL68_-21" value="" style="shape=flexArrow;endArrow=classic;html=1;fontSize=24;fillColor=#a0522d;strokeColor=#6D1F00;" parent="1" edge="1">
          <mxGeometry width="50" height="50" relative="1" as="geometry">
            <mxPoint x="-520" y="864.5" as="sourcePoint" />
            <mxPoint x="-400" y="864.5" as="targetPoint" />
          </mxGeometry>
        </mxCell>
        <mxCell id="J2sVRKakkmMQEyNmL68_-23" value="FILESERVER API" style="rounded=1;whiteSpace=wrap;html=1;fillColor=#a0522d;fontSize=48;strokeColor=#6D1F00;fontColor=#ffffff;" parent="1" vertex="1">
          <mxGeometry x="188.76" width="460" height="90" as="geometry" />
        </mxCell>
        <mxCell id="J2sVRKakkmMQEyNmL68_-24" value="subfolder, filename, &lt;font color=&quot;#ff0000&quot;&gt;file&lt;/font&gt;" style="shape=parallelogram;perimeter=parallelogramPerimeter;whiteSpace=wrap;html=1;fontSize=24;fillColor=#eeeeee;strokeColor=#36393d;" parent="1" vertex="1">
          <mxGeometry x="-940" y="1030" width="410" height="60" as="geometry" />
        </mxCell>
        <mxCell id="J2sVRKakkmMQEyNmL68_-25" value="" style="shape=flexArrow;endArrow=classic;html=1;fontSize=24;fillColor=#a0522d;strokeColor=#6D1F00;" parent="1" edge="1">
          <mxGeometry width="50" height="50" relative="1" as="geometry">
            <mxPoint x="-520" y="1064.5" as="sourcePoint" />
            <mxPoint x="-400" y="1064.5" as="targetPoint" />
          </mxGeometry>
        </mxCell>
        <mxCell id="J2sVRKakkmMQEyNmL68_-28" value="subfolder, filename, &lt;font color=&quot;#ff0000&quot;&gt;file&lt;/font&gt;" style="shape=parallelogram;perimeter=parallelogramPerimeter;whiteSpace=wrap;html=1;fontSize=24;fillColor=#eeeeee;strokeColor=#36393d;" parent="1" vertex="1">
          <mxGeometry x="-940" y="1200" width="410" height="60" as="geometry" />
        </mxCell>
        <mxCell id="J2sVRKakkmMQEyNmL68_-29" value="" style="shape=flexArrow;endArrow=classic;html=1;fontSize=24;fillColor=#a0522d;strokeColor=#6D1F00;" parent="1" edge="1">
          <mxGeometry width="50" height="50" relative="1" as="geometry">
            <mxPoint x="-520" y="1234.5" as="sourcePoint" />
            <mxPoint x="-400" y="1234.5" as="targetPoint" />
          </mxGeometry>
        </mxCell>
        <mxCell id="J2sVRKakkmMQEyNmL68_-30" value="filename" style="shape=parallelogram;perimeter=parallelogramPerimeter;whiteSpace=wrap;html=1;fillColor=#60a917;fontSize=24;strokeColor=#2D7600;fontColor=#ffffff;" parent="1" vertex="1">
          <mxGeometry x="27.5" y="1200" width="352.5" height="60" as="geometry" />
        </mxCell>
        <mxCell id="J2sVRKakkmMQEyNmL68_-31" value="" style="shape=flexArrow;endArrow=classic;html=1;fontSize=24;fillColor=#a0522d;strokeColor=#6D1F00;" parent="1" edge="1">
          <mxGeometry width="50" height="50" relative="1" as="geometry">
            <mxPoint x="-102.5" y="1234.5" as="sourcePoint" />
            <mxPoint x="17.5" y="1234.5" as="targetPoint" />
          </mxGeometry>
        </mxCell>
        <mxCell id="J2sVRKakkmMQEyNmL68_-32" value="subfolder, filename" style="shape=parallelogram;perimeter=parallelogramPerimeter;whiteSpace=wrap;html=1;fontSize=24;fillColor=#eeeeee;strokeColor=#36393d;" parent="1" vertex="1">
          <mxGeometry x="-940" y="1370" width="410" height="60" as="geometry" />
        </mxCell>
        <mxCell id="J2sVRKakkmMQEyNmL68_-33" value="" style="shape=flexArrow;endArrow=classic;html=1;fontSize=24;fillColor=#a0522d;strokeColor=#6D1F00;" parent="1" edge="1">
          <mxGeometry width="50" height="50" relative="1" as="geometry">
            <mxPoint x="-520" y="1404.5" as="sourcePoint" />
            <mxPoint x="-400" y="1404.5" as="targetPoint" />
          </mxGeometry>
        </mxCell>
        <mxCell id="J2sVRKakkmMQEyNmL68_-36" value="filename" style="shape=parallelogram;perimeter=parallelogramPerimeter;whiteSpace=wrap;html=1;fillColor=#60a917;fontSize=24;strokeColor=#2D7600;fontColor=#ffffff;" parent="1" vertex="1">
          <mxGeometry x="27.5" y="1370" width="352.5" height="60" as="geometry" />
        </mxCell>
        <mxCell id="J2sVRKakkmMQEyNmL68_-37" value="" style="shape=flexArrow;endArrow=classic;html=1;fontSize=24;fillColor=#a0522d;strokeColor=#6D1F00;" parent="1" edge="1">
          <mxGeometry width="50" height="50" relative="1" as="geometry">
            <mxPoint x="-102.5" y="1404.5" as="sourcePoint" />
            <mxPoint x="17.5" y="1404.5" as="targetPoint" />
          </mxGeometry>
        </mxCell>
        <mxCell id="J2sVRKakkmMQEyNmL68_-38" value="get a file from server" style="text;html=1;strokeColor=none;fillColor=none;align=center;verticalAlign=middle;whiteSpace=wrap;rounded=0;fontSize=24;" parent="1" vertex="1">
          <mxGeometry x="-390" y="800" width="280" height="20" as="geometry" />
        </mxCell>
        <mxCell id="J2sVRKakkmMQEyNmL68_-41" value="add a file to server&lt;br&gt;(if filename is null generate unique filename)" style="text;html=1;strokeColor=none;fillColor=none;align=center;verticalAlign=middle;whiteSpace=wrap;rounded=0;fontSize=24;" parent="1" vertex="1">
          <mxGeometry x="-491.56" y="980" width="483.12" height="20" as="geometry" />
        </mxCell>
        <mxCell id="J2sVRKakkmMQEyNmL68_-42" value="update a file in server" style="text;html=1;strokeColor=none;fillColor=none;align=center;verticalAlign=middle;whiteSpace=wrap;rounded=0;fontSize=24;" parent="1" vertex="1">
          <mxGeometry x="-390" y="1170" width="280" height="20" as="geometry" />
        </mxCell>
        <mxCell id="J2sVRKakkmMQEyNmL68_-44" value="delete a file from server" style="text;html=1;strokeColor=none;fillColor=none;align=center;verticalAlign=middle;whiteSpace=wrap;rounded=0;fontSize=24;" parent="1" vertex="1">
          <mxGeometry x="-390" y="1340" width="280" height="20" as="geometry" />
        </mxCell>
        <mxCell id="J2sVRKakkmMQEyNmL68_-46" value="filename" style="shape=parallelogram;perimeter=parallelogramPerimeter;whiteSpace=wrap;html=1;fillColor=#60a917;fontSize=24;strokeColor=#2D7600;fontColor=#ffffff;" parent="1" vertex="1">
          <mxGeometry x="20" y="1030" width="352.5" height="60" as="geometry" />
        </mxCell>
        <mxCell id="J2sVRKakkmMQEyNmL68_-53" value="request" style="rounded=1;whiteSpace=wrap;html=1;fontSize=18;fillColor=#eeeeee;strokeColor=#36393d;" parent="1" vertex="1">
          <mxGeometry x="-780" y="700" width="120" height="60" as="geometry" />
        </mxCell>
        <mxCell id="J2sVRKakkmMQEyNmL68_-55" value="response" style="rounded=1;whiteSpace=wrap;html=1;fillColor=#60a917;fontSize=18;strokeColor=#2D7600;fontColor=#ffffff;" parent="1" vertex="1">
          <mxGeometry x="143.75" y="700" width="120" height="60" as="geometry" />
        </mxCell>
        <mxCell id="J2sVRKakkmMQEyNmL68_-58" value="" style="endArrow=classic;html=1;fontSize=18;exitX=0.5;exitY=1;exitDx=0;exitDy=0;strokeWidth=10;fillColor=#eeeeee;strokeColor=#36393d;" parent="1" source="J2sVRKakkmMQEyNmL68_-53" edge="1">
          <mxGeometry width="50" height="50" relative="1" as="geometry">
            <mxPoint x="-710" y="810" as="sourcePoint" />
            <mxPoint x="-720" y="820" as="targetPoint" />
          </mxGeometry>
        </mxCell>
        <mxCell id="J2sVRKakkmMQEyNmL68_-60" value="" style="endArrow=classic;html=1;fontSize=18;exitX=0.5;exitY=1;exitDx=0;exitDy=0;strokeWidth=10;" parent="1" edge="1">
          <mxGeometry width="50" height="50" relative="1" as="geometry">
            <mxPoint x="203.1599999999995" y="760" as="sourcePoint" />
            <mxPoint x="203.1599999999995" y="820" as="targetPoint" />
          </mxGeometry>
        </mxCell>
        <mxCell id="J2sVRKakkmMQEyNmL68_-62" value="AUTHORIZATION&lt;br&gt;(username, password)" style="rounded=1;whiteSpace=wrap;html=1;fontSize=40;fillColor=#f9f7ed;strokeColor=#36393d;fontStyle=1" parent="1" vertex="1">
          <mxGeometry x="-245.62" y="190" width="1328.75" height="150" as="geometry" />
        </mxCell>
        <mxCell id="J2sVRKakkmMQEyNmL68_-63" value="rootfolder = username" style="rounded=1;whiteSpace=wrap;html=1;fontSize=40;fillColor=#f9f7ed;strokeColor=#36393d;fontStyle=1" parent="1" vertex="1">
          <mxGeometry x="-21.88" y="400" width="881.26" height="90" as="geometry" />
        </mxCell>
        <mxCell id="J2sVRKakkmMQEyNmL68_-66" value="" style="endArrow=classic;html=1;fontSize=18;exitX=0.5;exitY=1;exitDx=0;exitDy=0;strokeWidth=10;" parent="1" edge="1">
          <mxGeometry width="50" height="50" relative="1" as="geometry">
            <mxPoint x="429.9999999999991" y="340" as="sourcePoint" />
            <mxPoint x="429.9999999999991" y="400" as="targetPoint" />
          </mxGeometry>
        </mxCell>
        <mxCell id="J2sVRKakkmMQEyNmL68_-67" value="" style="endArrow=classic;html=1;fontSize=18;exitX=0.5;exitY=1;exitDx=0;exitDy=0;strokeWidth=10;" parent="1" edge="1">
          <mxGeometry width="50" height="50" relative="1" as="geometry">
            <mxPoint x="429.9999999999991" y="490" as="sourcePoint" />
            <mxPoint x="429.9999999999991" y="550" as="targetPoint" />
          </mxGeometry>
        </mxCell>
        <mxCell id="J2sVRKakkmMQEyNmL68_-68" value="" style="shape=flexArrow;endArrow=classic;html=1;fontSize=24;fillColor=#a0522d;strokeColor=#6D1F00;" parent="1" edge="1">
          <mxGeometry width="50" height="50" relative="1" as="geometry">
            <mxPoint x="-106.87999999999988" y="1070" as="sourcePoint" />
            <mxPoint x="13.120000000000118" y="1070" as="targetPoint" />
          </mxGeometry>
        </mxCell>
        <mxCell id="fU6XfB8MaYGxQXdTMVUw-1" value="&lt;font style=&quot;font-size: 24px&quot;&gt;GET&lt;/font&gt;" style="rounded=1;whiteSpace=wrap;html=1;fillColor=#6a00ff;strokeColor=#3700CC;fontColor=#FFFFFF;" vertex="1" parent="1">
          <mxGeometry x="1100" y="850" width="245" height="70" as="geometry" />
        </mxCell>
        <mxCell id="fU6XfB8MaYGxQXdTMVUw-2" value="&lt;font style=&quot;font-size: 24px&quot;&gt;POST&lt;/font&gt;" style="rounded=1;whiteSpace=wrap;html=1;fillColor=#1ba1e2;strokeColor=#006EAF;fontColor=#ffffff;" vertex="1" parent="1">
          <mxGeometry x="1100" y="1050" width="245" height="70" as="geometry" />
        </mxCell>
        <mxCell id="fU6XfB8MaYGxQXdTMVUw-3" value="&lt;font style=&quot;font-size: 24px&quot;&gt;PUT&lt;/font&gt;" style="rounded=1;whiteSpace=wrap;html=1;fillColor=#f0a30a;strokeColor=#BD7000;fontColor=#ffffff;" vertex="1" parent="1">
          <mxGeometry x="1100" y="1220" width="245" height="70" as="geometry" />
        </mxCell>
        <mxCell id="fU6XfB8MaYGxQXdTMVUw-4" value="&lt;font style=&quot;font-size: 24px&quot;&gt;DELETE&lt;/font&gt;" style="rounded=1;whiteSpace=wrap;html=1;fillColor=#a20025;strokeColor=#6F0000;fontColor=#ffffff;" vertex="1" parent="1">
          <mxGeometry x="1100" y="1390" width="245" height="70" as="geometry" />
        </mxCell>
        <mxCell id="fU6XfB8MaYGxQXdTMVUw-5" value="subfolder, filename" style="shape=parallelogram;perimeter=parallelogramPerimeter;whiteSpace=wrap;html=1;fontSize=24;fillColor=#f5f5f5;strokeColor=#666666;fontColor=#333333;" vertex="1" parent="1">
          <mxGeometry x="540" y="850" width="410" height="60" as="geometry" />
        </mxCell>
        <mxCell id="fU6XfB8MaYGxQXdTMVUw-6" value="&lt;font color=&quot;#ff0000&quot;&gt;file&lt;/font&gt;" style="shape=parallelogram;perimeter=parallelogramPerimeter;whiteSpace=wrap;html=1;fillColor=#60a917;fontSize=24;strokeColor=#2D7600;fontColor=#ffffff;" vertex="1" parent="1">
          <mxGeometry x="1500" y="850" width="360" height="60" as="geometry" />
        </mxCell>
        <mxCell id="fU6XfB8MaYGxQXdTMVUw-7" value="" style="shape=flexArrow;endArrow=classic;html=1;fontSize=24;fillColor=#a0522d;strokeColor=#6D1F00;" edge="1" parent="1">
          <mxGeometry width="50" height="50" relative="1" as="geometry">
            <mxPoint x="1370" y="884.5" as="sourcePoint" />
            <mxPoint x="1490" y="884.5" as="targetPoint" />
          </mxGeometry>
        </mxCell>
        <mxCell id="fU6XfB8MaYGxQXdTMVUw-8" value="" style="shape=flexArrow;endArrow=classic;html=1;fontSize=24;fillColor=#a0522d;strokeColor=#6D1F00;" edge="1" parent="1">
          <mxGeometry width="50" height="50" relative="1" as="geometry">
            <mxPoint x="960" y="884.5" as="sourcePoint" />
            <mxPoint x="1080" y="884.5" as="targetPoint" />
          </mxGeometry>
        </mxCell>
        <mxCell id="fU6XfB8MaYGxQXdTMVUw-9" value="subfolder, filename, &lt;font color=&quot;#ff0000&quot;&gt;file&lt;/font&gt;" style="shape=parallelogram;perimeter=parallelogramPerimeter;whiteSpace=wrap;html=1;fontSize=24;fillColor=#eeeeee;strokeColor=#36393d;" vertex="1" parent="1">
          <mxGeometry x="540" y="1050" width="410" height="60" as="geometry" />
        </mxCell>
        <mxCell id="fU6XfB8MaYGxQXdTMVUw-10" value="" style="shape=flexArrow;endArrow=classic;html=1;fontSize=24;fillColor=#a0522d;strokeColor=#6D1F00;" edge="1" parent="1">
          <mxGeometry width="50" height="50" relative="1" as="geometry">
            <mxPoint x="960" y="1084.5" as="sourcePoint" />
            <mxPoint x="1080" y="1084.5" as="targetPoint" />
          </mxGeometry>
        </mxCell>
        <mxCell id="fU6XfB8MaYGxQXdTMVUw-11" value="subfolder, filename, &lt;font color=&quot;#ff0000&quot;&gt;file&lt;/font&gt;" style="shape=parallelogram;perimeter=parallelogramPerimeter;whiteSpace=wrap;html=1;fontSize=24;fillColor=#eeeeee;strokeColor=#36393d;" vertex="1" parent="1">
          <mxGeometry x="540" y="1220" width="410" height="60" as="geometry" />
        </mxCell>
        <mxCell id="fU6XfB8MaYGxQXdTMVUw-12" value="" style="shape=flexArrow;endArrow=classic;html=1;fontSize=24;fillColor=#a0522d;strokeColor=#6D1F00;" edge="1" parent="1">
          <mxGeometry width="50" height="50" relative="1" as="geometry">
            <mxPoint x="960" y="1254.5" as="sourcePoint" />
            <mxPoint x="1080" y="1254.5" as="targetPoint" />
          </mxGeometry>
        </mxCell>
        <mxCell id="fU6XfB8MaYGxQXdTMVUw-13" value="filename" style="shape=parallelogram;perimeter=parallelogramPerimeter;whiteSpace=wrap;html=1;fillColor=#60a917;fontSize=24;strokeColor=#2D7600;fontColor=#ffffff;" vertex="1" parent="1">
          <mxGeometry x="1507.5" y="1220" width="352.5" height="60" as="geometry" />
        </mxCell>
        <mxCell id="fU6XfB8MaYGxQXdTMVUw-14" value="" style="shape=flexArrow;endArrow=classic;html=1;fontSize=24;fillColor=#a0522d;strokeColor=#6D1F00;" edge="1" parent="1">
          <mxGeometry width="50" height="50" relative="1" as="geometry">
            <mxPoint x="1377.5" y="1254.5" as="sourcePoint" />
            <mxPoint x="1497.5" y="1254.5" as="targetPoint" />
          </mxGeometry>
        </mxCell>
        <mxCell id="fU6XfB8MaYGxQXdTMVUw-15" value="subfolder, filename" style="shape=parallelogram;perimeter=parallelogramPerimeter;whiteSpace=wrap;html=1;fontSize=24;fillColor=#eeeeee;strokeColor=#36393d;" vertex="1" parent="1">
          <mxGeometry x="540" y="1390" width="410" height="60" as="geometry" />
        </mxCell>
        <mxCell id="fU6XfB8MaYGxQXdTMVUw-16" value="" style="shape=flexArrow;endArrow=classic;html=1;fontSize=24;fillColor=#a0522d;strokeColor=#6D1F00;" edge="1" parent="1">
          <mxGeometry width="50" height="50" relative="1" as="geometry">
            <mxPoint x="960" y="1424.5" as="sourcePoint" />
            <mxPoint x="1080" y="1424.5" as="targetPoint" />
          </mxGeometry>
        </mxCell>
        <mxCell id="fU6XfB8MaYGxQXdTMVUw-17" value="filename" style="shape=parallelogram;perimeter=parallelogramPerimeter;whiteSpace=wrap;html=1;fillColor=#60a917;fontSize=24;strokeColor=#2D7600;fontColor=#ffffff;" vertex="1" parent="1">
          <mxGeometry x="1507.5" y="1390" width="352.5" height="60" as="geometry" />
        </mxCell>
        <mxCell id="fU6XfB8MaYGxQXdTMVUw-18" value="" style="shape=flexArrow;endArrow=classic;html=1;fontSize=24;fillColor=#a0522d;strokeColor=#6D1F00;" edge="1" parent="1">
          <mxGeometry width="50" height="50" relative="1" as="geometry">
            <mxPoint x="1377.5" y="1424.5" as="sourcePoint" />
            <mxPoint x="1497.5" y="1424.5" as="targetPoint" />
          </mxGeometry>
        </mxCell>
        <mxCell id="fU6XfB8MaYGxQXdTMVUw-19" value="get a file from server" style="text;html=1;strokeColor=none;fillColor=none;align=center;verticalAlign=middle;whiteSpace=wrap;rounded=0;fontSize=24;" vertex="1" parent="1">
          <mxGeometry x="1090" y="820" width="280" height="20" as="geometry" />
        </mxCell>
        <mxCell id="fU6XfB8MaYGxQXdTMVUw-20" value="add a file to server&lt;br&gt;(if filename is null generate unique filename)" style="text;html=1;strokeColor=none;fillColor=none;align=center;verticalAlign=middle;whiteSpace=wrap;rounded=0;fontSize=24;" vertex="1" parent="1">
          <mxGeometry x="988.44" y="1000" width="483.12" height="20" as="geometry" />
        </mxCell>
        <mxCell id="fU6XfB8MaYGxQXdTMVUw-21" value="update a file in server" style="text;html=1;strokeColor=none;fillColor=none;align=center;verticalAlign=middle;whiteSpace=wrap;rounded=0;fontSize=24;" vertex="1" parent="1">
          <mxGeometry x="1090" y="1190" width="280" height="20" as="geometry" />
        </mxCell>
        <mxCell id="fU6XfB8MaYGxQXdTMVUw-22" value="delete a file from server" style="text;html=1;strokeColor=none;fillColor=none;align=center;verticalAlign=middle;whiteSpace=wrap;rounded=0;fontSize=24;" vertex="1" parent="1">
          <mxGeometry x="1090" y="1360" width="280" height="20" as="geometry" />
        </mxCell>
        <mxCell id="fU6XfB8MaYGxQXdTMVUw-23" value="filename" style="shape=parallelogram;perimeter=parallelogramPerimeter;whiteSpace=wrap;html=1;fillColor=#60a917;fontSize=24;strokeColor=#2D7600;fontColor=#ffffff;" vertex="1" parent="1">
          <mxGeometry x="1500" y="1050" width="352.5" height="60" as="geometry" />
        </mxCell>
        <mxCell id="fU6XfB8MaYGxQXdTMVUw-24" value="request" style="rounded=1;whiteSpace=wrap;html=1;fontSize=18;fillColor=#eeeeee;strokeColor=#36393d;" vertex="1" parent="1">
          <mxGeometry x="700" y="720" width="120" height="60" as="geometry" />
        </mxCell>
        <mxCell id="fU6XfB8MaYGxQXdTMVUw-25" value="response" style="rounded=1;whiteSpace=wrap;html=1;fillColor=#60a917;fontSize=18;strokeColor=#2D7600;fontColor=#ffffff;" vertex="1" parent="1">
          <mxGeometry x="1623.75" y="720" width="120" height="60" as="geometry" />
        </mxCell>
        <mxCell id="fU6XfB8MaYGxQXdTMVUw-26" value="" style="endArrow=classic;html=1;fontSize=18;exitX=0.5;exitY=1;exitDx=0;exitDy=0;strokeWidth=10;fillColor=#eeeeee;strokeColor=#36393d;" edge="1" source="fU6XfB8MaYGxQXdTMVUw-24" parent="1">
          <mxGeometry width="50" height="50" relative="1" as="geometry">
            <mxPoint x="770" y="830" as="sourcePoint" />
            <mxPoint x="760" y="840" as="targetPoint" />
          </mxGeometry>
        </mxCell>
        <mxCell id="fU6XfB8MaYGxQXdTMVUw-27" value="" style="endArrow=classic;html=1;fontSize=18;exitX=0.5;exitY=1;exitDx=0;exitDy=0;strokeWidth=10;" edge="1" parent="1">
          <mxGeometry width="50" height="50" relative="1" as="geometry">
            <mxPoint x="1683.1599999999999" y="780" as="sourcePoint" />
            <mxPoint x="1683.1599999999999" y="840" as="targetPoint" />
          </mxGeometry>
        </mxCell>
        <mxCell id="fU6XfB8MaYGxQXdTMVUw-28" value="" style="shape=flexArrow;endArrow=classic;html=1;fontSize=24;fillColor=#a0522d;strokeColor=#6D1F00;" edge="1" parent="1">
          <mxGeometry width="50" height="50" relative="1" as="geometry">
            <mxPoint x="1373.12" y="1090" as="sourcePoint" />
            <mxPoint x="1493.12" y="1090" as="targetPoint" />
          </mxGeometry>
        </mxCell>
      </root>
    </mxGraphModel>
  </diagram>
</mxfile>
